<svg xmlns="http://www.w3.org/2000/svg" width="228" height="95" viewBox="0 0 228 95" fill="none">
  <path d="M 151.278 76.5 L 151.373 75.505 L 151.278 76.5 Z M 75.856 38.5 L 76.486 37.724 L 76.486 37.724 L 75.856 38.5 Z M 228 95 C 228.366 94.069 228.366 94.069 228.365 94.069 C 228.365 94.069 228.364 94.069 228.364 94.069 C 228.363 94.068 228.361 94.067 228.358 94.066 C 228.353 94.064 228.346 94.062 228.337 94.058 C 228.318 94.051 228.29 94.04 228.253 94.025 C 228.18 93.997 228.071 93.955 227.927 93.9 C 227.64 93.79 227.215 93.628 226.661 93.422 C 225.553 93.009 223.929 92.416 221.857 91.693 C 217.715 90.246 211.785 88.28 204.627 86.196 C 190.316 82.03 171.069 77.388 151.373 75.505 L 151.278 76.5 L 151.182 77.495 C 170.708 79.362 189.823 83.97 204.068 88.116 C 211.187 90.189 217.083 92.144 221.198 93.581 C 223.255 94.299 224.867 94.888 225.963 95.296 C 226.511 95.5 226.93 95.659 227.211 95.767 C 227.352 95.821 227.458 95.862 227.529 95.89 C 227.565 95.903 227.591 95.914 227.609 95.921 C 227.617 95.924 227.624 95.927 227.628 95.928 C 227.63 95.929 227.632 95.93 227.633 95.93 C 227.633 95.93 227.634 95.93 227.634 95.931 C 227.634 95.931 227.634 95.931 228 95 Z M 151.278 76.5 L 151.373 75.505 C 119.711 72.477 99.904 56.733 76.486 37.724 L 75.856 38.5 L 75.225 39.276 C 98.621 58.267 118.853 74.405 151.182 77.495 L 151.278 76.5 Z M 75.856 38.5 L 76.486 37.724 C 63.145 26.894 44.08 17.226 28.408 10.279 C 20.561 6.801 13.544 3.996 8.488 2.06 C 5.96 1.093 3.921 0.342 2.514 -0.167 C 1.81 -0.422 1.264 -0.616 0.894 -0.747 C 0.708 -0.812 0.567 -0.862 0.472 -0.895 C 0.424 -0.911 0.388 -0.924 0.363 -0.932 C 0.351 -0.937 0.342 -0.94 0.336 -0.942 C 0.332 -0.943 0.33 -0.944 0.328 -0.945 C 0.328 -0.945 0.327 -0.945 0.327 -0.945 C 0.326 -0.945 0.326 -0.945 0 0 C -0.326 0.945 -0.326 0.945 -0.325 0.946 C -0.325 0.946 -0.325 0.946 -0.324 0.946 C -0.323 0.947 -0.32 0.947 -0.318 0.948 C -0.312 0.95 -0.303 0.953 -0.292 0.957 C -0.268 0.965 -0.233 0.978 -0.187 0.994 C -0.094 1.026 0.046 1.075 0.228 1.139 C 0.594 1.268 1.135 1.461 1.834 1.713 C 3.231 2.219 5.257 2.965 7.773 3.928 C 12.804 5.855 19.789 8.646 27.597 12.108 C 43.236 19.04 62.099 28.621 75.225 39.276 L 75.856 38.5 Z" fill="currentColor" fill-rule="nonzero"></path>
</svg>