<svg xmlns="http://www.w3.org/2000/svg" width="15" height="12" viewBox="0 0 15 12" fill="none">
  <path d="M 7.5 0 C 7.915 0 8.25 0.335 8.25 0.75 L 8.25 2.25 L 11.063 2.25 C 11.995 2.25 12.75 3.005 12.75 3.938 L 12.75 10.313 C 12.75 11.245 11.995 12 11.063 12 L 3.938 12 C 3.005 12 2.25 11.245 2.25 10.313 L 2.25 3.938 C 2.25 3.005 3.005 2.25 3.938 2.25 L 6.75 2.25 L 6.75 0.75 C 6.75 0.335 7.085 0 7.5 0 Z M 4.875 9 C 4.669 9 4.5 9.169 4.5 9.375 C 4.5 9.581 4.669 9.75 4.875 9.75 L 5.625 9.75 C 5.831 9.75 6 9.581 6 9.375 C 6 9.169 5.831 9 5.625 9 L 4.875 9 Z M 7.125 9 C 6.919 9 6.75 9.169 6.75 9.375 C 6.75 9.581 6.919 9.75 7.125 9.75 L 7.875 9.75 C 8.081 9.75 8.25 9.581 8.25 9.375 C 8.25 9.169 8.081 9 7.875 9 L 7.125 9 Z M 9.375 9 C 9.169 9 9 9.169 9 9.375 C 9 9.581 9.169 9.75 9.375 9.75 L 10.125 9.75 C 10.331 9.75 10.5 9.581 10.5 9.375 C 10.5 9.169 10.331 9 10.125 9 L 9.375 9 Z M 6.188 6 C 6.188 5.751 6.089 5.513 5.913 5.337 C 5.737 5.161 5.499 5.063 5.25 5.063 C 5.001 5.063 4.763 5.161 4.587 5.337 C 4.411 5.513 4.313 5.751 4.313 6 C 4.313 6.249 4.411 6.487 4.587 6.663 C 4.763 6.839 5.001 6.938 5.25 6.938 C 5.499 6.938 5.737 6.839 5.913 6.663 C 6.089 6.487 6.188 6.249 6.188 6 Z M 9.75 6.938 C 9.999 6.938 10.237 6.839 10.413 6.663 C 10.589 6.487 10.688 6.249 10.688 6 C 10.688 5.751 10.589 5.513 10.413 5.337 C 10.237 5.161 9.999 5.063 9.75 5.063 C 9.501 5.063 9.263 5.161 9.087 5.337 C 8.911 5.513 8.813 5.751 8.813 6 C 8.813 6.249 8.911 6.487 9.087 6.663 C 9.263 6.839 9.501 6.938 9.75 6.938 Z M 1.125 5.25 L 1.5 5.25 L 1.5 9.75 L 1.125 9.75 C 0.504 9.75 0 9.246 0 8.625 L 0 6.375 C 0 5.754 0.504 5.25 1.125 5.25 Z M 13.875 5.25 C 14.496 5.25 15 5.754 15 6.375 L 15 8.625 C 15 9.246 14.496 9.75 13.875 9.75 L 13.5 9.75 L 13.5 5.25 L 13.875 5.25 Z" fill="currentColor" fill-rule="nonzero"></path>
</svg>