<svg xmlns="http://www.w3.org/2000/svg" width="6.915" height="6.967" viewBox="0 0 6.915 6.967" fill="none">
  <path d="M 3.096 0.231 C 3.239 -0.077 3.677 -0.077 3.819 0.231 L 4.668 2.068 C 4.707 2.153 4.775 2.221 4.859 2.261 L 6.687 3.123 C 6.991 3.267 6.991 3.7 6.687 3.844 L 4.859 4.706 C 4.775 4.746 4.707 4.814 4.668 4.899 L 3.819 6.736 C 3.677 7.044 3.239 7.044 3.096 6.736 L 2.248 4.899 C 2.209 4.814 2.141 4.746 2.056 4.706 L 0.228 3.844 C -0.076 3.7 -0.076 3.267 0.228 3.123 L 2.056 2.261 C 2.141 2.221 2.209 2.153 2.248 2.068 L 3.096 0.231 Z" fill="currentColor" fill-rule="nonzero"></path>
</svg>