<svg xmlns="http://www.w3.org/2000/svg" width="6.025" height="6.025" viewBox="0 0 6.025 6.025" fill="none">
  <path d="M 2.743 0.577 C 2.85 0.349 3.175 0.349 3.282 0.577 L 3.925 1.956 C 3.955 2.019 4.006 2.07 4.069 2.1 L 5.447 2.743 C 5.676 2.85 5.676 3.175 5.447 3.282 L 4.069 3.925 C 4.006 3.955 3.955 4.006 3.925 4.069 L 3.282 5.447 C 3.175 5.676 2.85 5.676 2.743 5.447 L 2.1 4.069 C 2.07 4.006 2.019 3.955 1.956 3.925 L 0.577 3.282 C 0.349 3.175 0.349 2.85 0.577 2.743 L 1.956 2.1 C 2.019 2.07 2.07 2.019 2.1 1.956 L 2.743 0.577 Z" fill="currentColor" fill-rule="nonzero"></path>
</svg>