<svg xmlns="http://www.w3.org/2000/svg" width="6.885" height="6.887" viewBox="0 0 6.885 6.887" fill="none">
  <path d="M 5.595 2.797 C 5.595 3.415 5.394 3.985 5.057 4.447 L 6.759 6.151 C 6.927 6.319 6.927 6.592 6.759 6.761 C 6.591 6.929 6.318 6.929 6.15 6.761 L 4.447 5.057 C 3.985 5.396 3.415 5.595 2.797 5.595 C 1.252 5.595 0 4.343 0 2.797 C 0 1.252 1.252 0 2.797 0 C 4.343 0 5.595 1.252 5.595 2.797 Z M 2.797 4.734 C 3.052 4.734 3.303 4.684 3.538 4.586 C 3.773 4.489 3.987 4.346 4.167 4.167 C 4.346 3.987 4.489 3.773 4.586 3.538 C 4.684 3.303 4.734 3.052 4.734 2.797 C 4.734 2.543 4.684 2.291 4.586 2.056 C 4.489 1.821 4.346 1.608 4.167 1.428 C 3.987 1.248 3.773 1.105 3.538 1.008 C 3.303 0.911 3.052 0.861 2.797 0.861 C 2.543 0.861 2.291 0.911 2.056 1.008 C 1.821 1.105 1.608 1.248 1.428 1.428 C 1.248 1.608 1.105 1.821 1.008 2.056 C 0.911 2.291 0.861 2.543 0.861 2.797 C 0.861 3.052 0.911 3.303 1.008 3.538 C 1.105 3.773 1.248 3.987 1.428 4.167 C 1.608 4.346 1.821 4.489 2.056 4.586 C 2.291 4.684 2.543 4.734 2.797 4.734 Z" fill="currentColor" fill-rule="nonzero"></path>
</svg>