<svg xmlns="http://www.w3.org/2000/svg" width="15.973" height="16.140" viewBox="0 0 15.973 16.140" fill="none">
  <path d="M 7.263 1.566 C 7.548 0.949 8.425 0.949 8.71 1.566 L 10.406 5.239 C 10.485 5.409 10.62 5.546 10.79 5.626 L 14.445 7.35 C 15.054 7.637 15.054 8.503 14.445 8.791 L 10.79 10.515 C 10.62 10.594 10.485 10.731 10.406 10.901 L 8.71 14.574 C 8.425 15.191 7.548 15.191 7.263 14.574 L 5.567 10.901 C 5.488 10.731 5.352 10.594 5.183 10.515 L 1.528 8.791 C 0.919 8.503 0.919 7.637 1.528 7.35 L 5.183 5.626 C 5.352 5.546 5.488 5.409 5.567 5.239 L 7.263 1.566 Z" fill="currentColor" fill-rule="nonzero"></path>
</svg>