<svg xmlns="http://www.w3.org/2000/svg" width="8.750" height="10" viewBox="0 0 8.750 10" fill="none">
  <path d="M 2.813 2.813 L 2.813 3.75 L 5.938 3.75 L 5.938 2.813 C 5.938 1.949 5.238 1.25 4.375 1.25 C 3.512 1.25 2.813 1.949 2.813 2.813 Z M 1.563 3.75 L 1.563 2.813 C 1.563 1.26 2.822 0 4.375 0 C 5.928 0 7.188 1.26 7.188 2.813 L 7.188 3.75 L 7.5 3.75 C 8.189 3.75 8.75 4.311 8.75 5 L 8.75 8.75 C 8.75 9.439 8.189 10 7.5 10 L 1.25 10 C 0.561 10 0 9.439 0 8.75 L 0 5 C 0 4.311 0.561 3.75 1.25 3.75 L 1.563 3.75 Z" fill="currentColor" fill-rule="nonzero"></path>
</svg>