<svg xmlns="http://www.w3.org/2000/svg" width="11.549" height="11.549" viewBox="0 0 11.549 11.549" fill="none">
  <path d="M 4.672 2.362 C 5.109 1.426 6.44 1.426 6.877 2.362 L 7.425 3.536 C 7.546 3.795 7.754 4.003 8.013 4.124 L 9.187 4.672 C 10.123 5.109 10.123 6.44 9.187 6.877 L 8.013 7.425 C 7.754 7.546 7.546 7.754 7.425 8.013 L 6.877 9.187 C 6.44 10.123 5.109 10.123 4.672 9.187 L 4.124 8.013 C 4.003 7.754 3.795 7.546 3.536 7.425 L 2.362 6.877 C 1.426 6.44 1.426 5.109 2.362 4.672 L 3.536 4.124 C 3.795 4.003 4.003 3.795 4.124 3.536 L 4.672 2.362 Z" fill="currentColor" fill-rule="nonzero"></path>
  <path d="M 3.536 4.124 L 4.326 5.817 L 3.536 4.124 Z M 4.124 3.536 L 5.817 4.326 L 4.124 3.536 Z M 4.124 8.013 L 2.431 8.803 L 4.124 8.013 Z M 4.672 9.187 L 2.98 9.977 L 4.672 9.187 Z M 8.013 7.425 L 8.803 9.118 L 8.013 7.425 Z M 7.425 8.013 L 5.732 7.223 L 7.425 8.013 Z M 9.187 6.877 L 8.397 5.184 L 9.187 6.877 Z M 7.425 3.536 L 5.732 4.326 L 7.425 3.536 Z M 4.672 2.362 L 2.98 1.572 L 4.672 2.362 Z M 6.877 2.362 L 5.184 3.152 L 5.732 4.326 L 7.425 3.536 L 9.118 2.746 L 8.57 1.572 L 6.877 2.362 Z M 8.013 4.124 L 7.223 5.817 L 8.397 6.365 L 9.187 4.672 L 9.977 2.98 L 8.803 2.431 L 8.013 4.124 Z M 9.187 6.877 L 8.397 5.184 L 7.223 5.732 L 8.013 7.425 L 8.803 9.118 L 9.977 8.57 L 9.187 6.877 Z M 7.425 8.013 L 5.732 7.223 L 5.184 8.397 L 6.877 9.187 L 8.57 9.977 L 9.118 8.803 L 7.425 8.013 Z M 4.672 9.187 L 6.365 8.397 L 5.817 7.223 L 4.124 8.013 L 2.431 8.803 L 2.98 9.977 L 4.672 9.187 Z M 3.536 7.425 L 4.326 5.732 L 3.152 5.184 L 2.362 6.877 L 1.572 8.57 L 2.746 9.118 L 3.536 7.425 Z M 2.362 4.672 L 3.152 6.365 L 4.326 5.817 L 3.536 4.124 L 2.746 2.431 L 1.572 2.98 L 2.362 4.672 Z M 4.124 3.536 L 5.817 4.326 L 6.365 3.152 L 4.672 2.362 L 2.98 1.572 L 2.431 2.746 L 4.124 3.536 Z M 3.536 4.124 L 4.326 5.817 C 4.983 5.511 5.511 4.983 5.817 4.326 L 4.124 3.536 L 2.431 2.746 C 2.496 2.608 2.608 2.496 2.746 2.431 L 3.536 4.124 Z M 2.362 6.877 L 3.152 5.184 C 3.653 5.418 3.653 6.131 3.152 6.365 L 2.362 4.672 L 1.572 2.98 C -0.801 4.087 -0.801 7.462 1.572 8.57 L 2.362 6.877 Z M 4.124 8.013 L 5.817 7.223 C 5.511 6.566 4.983 6.039 4.326 5.732 L 3.536 7.425 L 2.746 9.118 C 2.608 9.053 2.496 8.942 2.431 8.803 L 4.124 8.013 Z M 6.877 9.187 L 5.184 8.397 C 5.418 7.896 6.131 7.896 6.365 8.397 L 4.672 9.187 L 2.98 9.977 C 4.087 12.351 7.462 12.351 8.57 9.977 L 6.877 9.187 Z M 8.013 7.425 L 7.223 5.732 C 6.566 6.039 6.039 6.566 5.732 7.223 L 7.425 8.013 L 9.118 8.803 C 9.053 8.942 8.942 9.053 8.803 9.118 L 8.013 7.425 Z M 9.187 4.672 L 8.397 6.365 C 7.896 6.131 7.896 5.418 8.397 5.184 L 9.187 6.877 L 9.977 8.57 C 12.351 7.462 12.351 4.087 9.977 2.98 L 9.187 4.672 Z M 7.425 3.536 L 5.732 4.326 C 6.039 4.983 6.566 5.511 7.223 5.817 L 8.013 4.124 L 8.803 2.431 C 8.942 2.496 9.053 2.608 9.118 2.746 L 7.425 3.536 Z M 6.877 2.362 L 8.57 1.572 C 7.462 -0.801 4.087 -0.801 2.98 1.572 L 4.672 2.362 L 6.365 3.152 C 6.131 3.653 5.418 3.653 5.184 3.152 L 6.877 2.362 Z" fill="currentColor" fill-rule="nonzero"></path>
</svg>