<svg xmlns="http://www.w3.org/2000/svg" width="20" height="20" viewBox="0 0 20 20" fill="none">
  <path d="M 10 20 C 12.652 20 15.196 18.946 17.071 17.071 C 18.946 15.196 20 12.652 20 10 C 20 7.348 18.946 4.804 17.071 2.929 C 15.196 1.054 12.652 0 10 0 C 7.348 0 4.804 1.054 2.929 2.929 C 1.054 4.804 0 7.348 0 10 C 0 12.652 1.054 15.196 2.929 17.071 C 4.804 18.946 7.348 20 10 20 Z M 14.414 8.164 L 9.414 13.164 C 9.047 13.531 8.453 13.531 8.09 13.164 L 5.59 10.664 C 5.223 10.297 5.223 9.703 5.59 9.34 C 5.957 8.977 6.551 8.973 6.914 9.34 L 8.75 11.176 L 13.086 6.836 C 13.453 6.469 14.047 6.469 14.41 6.836 C 14.773 7.203 14.777 7.797 14.41 8.16 L 14.414 8.164 Z" fill="currentColor" fill-rule="nonzero"></path>
</svg>