<svg xmlns="http://www.w3.org/2000/svg" width="14" height="18" viewBox="0 0 14 18" fill="none">
  <path d="M 11.571 1.568 C 11.786 1.087 11.626 0.524 11.185 0.215 C 10.743 -0.095 10.142 -0.066 9.73 0.278 L 0.399 8.153 C 0.034 8.462 -0.097 8.958 0.074 9.394 C 0.246 9.83 0.683 10.125 1.168 10.125 L 5.232 10.125 L 2.429 16.432 C 2.214 16.913 2.374 17.476 2.815 17.785 C 3.257 18.095 3.858 18.066 4.27 17.722 L 13.601 9.847 C 13.966 9.538 14.097 9.042 13.926 8.606 C 13.754 8.17 13.321 7.879 12.832 7.879 L 8.768 7.879 L 11.571 1.568 Z" fill="currentColor" fill-rule="nonzero"></path>
</svg>