<svg xmlns="http://www.w3.org/2000/svg" width="20" height="18" viewBox="0 0 20 18" fill="none">
  <path d="M 2.222 0 C 0.997 0 0 1.009 0 2.25 L 0 12.375 C 0 13.616 0.997 14.625 2.222 14.625 L 8.333 14.625 L 7.962 15.75 L 5.556 15.75 C 4.941 15.75 4.444 16.253 4.444 16.875 C 4.444 17.497 4.941 18 5.556 18 L 14.444 18 C 15.059 18 15.556 17.497 15.556 16.875 C 15.556 16.253 15.059 15.75 14.444 15.75 L 12.038 15.75 L 11.667 14.625 L 17.778 14.625 C 19.003 14.625 20 13.616 20 12.375 L 20 2.25 C 20 1.009 19.003 0 17.778 0 L 2.222 0 Z M 17.778 2.25 L 17.778 12.375 L 2.222 12.375 L 2.222 2.25 L 17.778 2.25 Z" fill="currentColor" fill-rule="nonzero"></path>
</svg>