<svg xmlns="http://www.w3.org/2000/svg" width="20" height="20" viewBox="0 0 20 20" fill="none">
  <path d="M 2.222 20 C 1.611 20 1.088 19.782 0.653 19.347 C 0.218 18.912 0 18.389 0 17.778 L 0 2.222 C 0 1.611 0.218 1.088 0.653 0.653 C 1.088 0.218 1.611 0 2.222 0 L 17.778 0 C 18.389 0 18.912 0.218 19.347 0.653 C 19.782 1.088 20 1.611 20 2.222 L 20 17.778 C 20 18.389 19.782 18.912 19.347 19.347 C 18.912 19.782 18.389 20 17.778 20 L 2.222 20 Z M 17.778 4.722 L 11.056 12.278 L 6.667 7.889 L 2.222 12.333 L 2.222 15.5 L 6.667 11.056 L 11.167 15.556 L 17.778 8.056 L 17.778 4.722 Z" fill="currentColor" fill-rule="nonzero"></path>
</svg>