<svg xmlns="http://www.w3.org/2000/svg" width="18.000" height="20" viewBox="0 0 18.000 20" fill="none">
  <path d="M 8.999 0 C 8.288 0 7.714 0.559 7.714 1.25 L 7.714 2 C 4.78 2.578 2.571 5.102 2.571 8.125 L 2.571 8.859 C 2.571 10.695 1.876 12.469 0.622 13.844 L 0.325 14.168 C -0.013 14.535 -0.093 15.063 0.112 15.512 C 0.317 15.961 0.779 16.25 1.285 16.25 L 16.714 16.25 C 17.22 16.25 17.678 15.961 17.887 15.512 C 18.096 15.063 18.011 14.535 17.674 14.168 L 17.376 13.844 C 16.123 12.469 15.428 10.699 15.428 8.859 L 15.428 8.125 C 15.428 5.102 13.218 2.578 10.285 2 L 10.285 1.25 C 10.285 0.559 9.71 0 8.999 0 Z M 10.819 19.27 C 11.301 18.801 11.571 18.164 11.571 17.5 L 8.999 17.5 L 6.428 17.5 C 6.428 18.164 6.697 18.801 7.179 19.27 C 7.661 19.738 8.316 20 8.999 20 C 9.682 20 10.337 19.738 10.819 19.27 Z" fill="currentColor" fill-rule="nonzero"></path>
</svg>