<svg xmlns="http://www.w3.org/2000/svg" width="20" height="17.500" viewBox="0 0 20 17.500" fill="none">
  <path d="M 5.824 1.281 L 5.418 2.5 L 2.5 2.5 C 1.121 2.5 0 3.621 0 5 L 0 15 C 0 16.379 1.121 17.5 2.5 17.5 L 17.5 17.5 C 18.879 17.5 20 16.379 20 15 L 20 5 C 20 3.621 18.879 2.5 17.5 2.5 L 14.582 2.5 L 14.176 1.281 C 13.922 0.516 13.207 0 12.398 0 L 7.602 0 C 6.793 0 6.078 0.516 5.824 1.281 Z M 10 6.25 C 10.995 6.25 11.948 6.645 12.652 7.348 C 13.355 8.052 13.75 9.005 13.75 10 C 13.75 10.995 13.355 11.948 12.652 12.652 C 11.948 13.355 10.995 13.75 10 13.75 C 9.005 13.75 8.052 13.355 7.348 12.652 C 6.645 11.948 6.25 10.995 6.25 10 C 6.25 9.005 6.645 8.052 7.348 7.348 C 8.052 6.645 9.005 6.25 10 6.25 Z" fill="currentColor" fill-rule="nonzero"></path>
</svg>