<svg xmlns="http://www.w3.org/2000/svg" width="16" height="16" viewBox="0 0 16 16" fill="none">
  <path d="M 8 16 C 10.122 16 12.157 15.157 13.657 13.657 C 15.157 12.157 16 10.122 16 8 C 16 5.878 15.157 3.843 13.657 2.343 C 12.157 0.843 10.122 0 8 0 C 5.878 0 3.843 0.843 2.343 2.343 C 0.843 3.843 0 5.878 0 8 C 0 10.122 0.843 12.157 2.343 13.657 C 3.843 15.157 5.878 16 8 16 Z M 6.75 10.5 L 7.5 10.5 L 7.5 8.5 L 6.75 8.5 C 6.334 8.5 6 8.166 6 7.75 C 6 7.334 6.334 7 6.75 7 L 8.25 7 C 8.666 7 9 7.334 9 7.75 L 9 10.5 L 9.25 10.5 C 9.666 10.5 10 10.834 10 11.25 C 10 11.666 9.666 12 9.25 12 L 6.75 12 C 6.334 12 6 11.666 6 11.25 C 6 10.834 6.334 10.5 6.75 10.5 Z M 8 4 C 8.265 4 8.52 4.105 8.707 4.293 C 8.895 4.48 9 4.735 9 5 C 9 5.265 8.895 5.52 8.707 5.707 C 8.52 5.895 8.265 6 8 6 C 7.735 6 7.48 5.895 7.293 5.707 C 7.105 5.52 7 5.265 7 5 C 7 4.735 7.105 4.48 7.293 4.293 C 7.48 4.105 7.735 4 8 4 Z" fill="currentColor" fill-rule="nonzero"></path>
</svg>