<svg xmlns="http://www.w3.org/2000/svg" width="16" height="20" viewBox="0 0 16 20" fill="none">
  <path d="M 8 0 C 5.591 0 3.636 1.68 3.636 3.75 L 3.636 10 C 3.636 12.07 5.591 13.75 8 13.75 C 10.409 13.75 12.364 12.07 12.364 10 L 12.364 3.75 C 12.364 1.68 10.409 0 8 0 Z M 2.182 8.438 C 2.182 7.918 1.695 7.5 1.091 7.5 C 0.486 7.5 0 7.918 0 8.438 L 0 10 C 0 13.48 3.009 16.355 6.909 16.813 L 6.909 18.125 L 4.727 18.125 C 4.123 18.125 3.636 18.543 3.636 19.063 C 3.636 19.582 4.123 20 4.727 20 L 8 20 L 11.273 20 C 11.877 20 12.364 19.582 12.364 19.063 C 12.364 18.543 11.877 18.125 11.273 18.125 L 9.091 18.125 L 9.091 16.813 C 12.991 16.355 16 13.48 16 10 L 16 8.438 C 16 7.918 15.514 7.5 14.909 7.5 C 14.305 7.5 13.818 7.918 13.818 8.438 L 13.818 10 C 13.818 12.762 11.214 15 8 15 C 4.786 15 2.182 12.762 2.182 10 L 2.182 8.438 Z" fill="currentColor" fill-rule="nonzero"></path>
</svg>