<svg xmlns="http://www.w3.org/2000/svg" width="12" height="6" viewBox="0 0 12 6" fill="none">
  <path d="M 0.707 -0.707 C 0.317 -1.098 -0.317 -1.098 -0.707 -0.707 C -1.098 -0.317 -1.098 0.317 -0.707 0.707 L 0 0 L 0.707 -0.707 Z M 6 6 L 5.293 6.707 C 5.683 7.098 6.317 7.098 6.707 6.707 L 6 6 Z M 12.707 0.707 C 13.098 0.317 13.098 -0.317 12.707 -0.707 C 12.317 -1.098 11.683 -1.098 11.293 -0.707 L 12 0 L 12.707 0.707 Z M 0 0 L -0.707 0.707 L 5.293 6.707 L 6 6 L 6.707 5.293 L 0.707 -0.707 L 0 0 Z M 6 6 L 6.707 6.707 L 12.707 0.707 L 12 0 L 11.293 -0.707 L 5.293 5.293 L 6 6 Z" fill="currentColor" fill-rule="nonzero"></path>
</svg>