<svg xmlns="http://www.w3.org/2000/svg" width="98.120" height="40.883" viewBox="0 0 98.120 40.883" fill="none">
  <path d="M 65.102 32.922 L 65.143 32.493 L 65.102 32.922 Z M 32.645 16.569 L 32.916 16.234 L 32.916 16.234 L 32.645 16.569 Z M 98.12 40.883 C 98.278 40.483 98.277 40.483 98.277 40.483 C 98.277 40.483 98.277 40.483 98.277 40.482 C 98.276 40.482 98.275 40.482 98.274 40.482 C 98.272 40.481 98.269 40.48 98.265 40.478 C 98.257 40.475 98.245 40.47 98.229 40.464 C 98.197 40.452 98.15 40.433 98.089 40.41 C 97.965 40.362 97.782 40.293 97.544 40.204 C 97.067 40.026 96.368 39.771 95.477 39.46 C 93.694 38.838 91.142 37.991 88.061 37.095 C 81.903 35.302 73.62 33.304 65.143 32.493 L 65.102 32.922 L 65.061 33.35 C 73.464 34.154 81.691 36.136 87.821 37.921 C 90.885 38.813 93.422 39.654 95.193 40.273 C 96.078 40.582 96.772 40.835 97.243 41.011 C 97.479 41.099 97.66 41.167 97.781 41.214 C 97.841 41.237 97.887 41.254 97.917 41.266 C 97.933 41.272 97.944 41.277 97.952 41.28 C 97.955 41.281 97.958 41.282 97.96 41.283 C 97.961 41.283 97.962 41.283 97.962 41.284 C 97.962 41.284 97.962 41.284 97.962 41.284 C 97.963 41.284 97.963 41.284 98.12 40.883 Z M 65.102 32.922 L 65.143 32.493 C 51.518 31.191 42.994 24.415 32.916 16.234 L 32.645 16.569 L 32.373 16.903 C 42.442 25.075 51.149 32.02 65.061 33.35 L 65.102 32.922 Z M 32.645 16.569 L 32.916 16.234 C 27.174 11.574 18.97 7.413 12.225 4.424 C 8.848 2.927 5.829 1.72 3.653 0.887 C 2.565 0.47 1.688 0.147 1.082 -0.072 C 0.779 -0.182 0.544 -0.265 0.385 -0.321 C 0.305 -0.349 0.244 -0.371 0.203 -0.385 C 0.182 -0.392 0.167 -0.398 0.156 -0.401 C 0.151 -0.403 0.147 -0.404 0.144 -0.405 C 0.143 -0.406 0.142 -0.406 0.141 -0.406 C 0.141 -0.407 0.141 -0.407 0.141 -0.407 C 0.14 -0.407 0.14 -0.407 0 0 C -0.14 0.407 -0.14 0.407 -0.14 0.407 C -0.14 0.407 -0.14 0.407 -0.139 0.407 C -0.139 0.407 -0.138 0.408 -0.137 0.408 C -0.134 0.409 -0.13 0.41 -0.125 0.412 C -0.115 0.415 -0.1 0.421 -0.08 0.428 C -0.04 0.442 0.02 0.463 0.098 0.49 C 0.256 0.546 0.489 0.629 0.789 0.737 C 1.39 0.955 2.263 1.276 3.345 1.691 C 5.51 2.519 8.516 3.721 11.876 5.21 C 18.607 8.194 26.724 12.317 32.373 16.903 L 32.645 16.569 Z" fill="currentColor" fill-rule="nonzero"></path>
</svg>