<svg xmlns="http://www.w3.org/2000/svg" width="16" height="8" viewBox="0 0 16 8" fill="none">
  <path d="M 0.707 -0.707 C 0.317 -1.098 -0.317 -1.098 -0.707 -0.707 C -1.098 -0.317 -1.098 0.317 -0.707 0.707 L 0 0 L 0.707 -0.707 Z M 8 8 L 7.293 8.707 C 7.683 9.098 8.317 9.098 8.707 8.707 L 8 8 Z M 16.707 0.707 C 17.098 0.317 17.098 -0.317 16.707 -0.707 C 16.317 -1.098 15.683 -1.098 15.293 -0.707 L 16 0 L 16.707 0.707 Z M 0 0 L -0.707 0.707 L 7.293 8.707 L 8 8 L 8.707 7.293 L 0.707 -0.707 L 0 0 Z M 8 8 L 8.707 8.707 L 16.707 0.707 L 16 0 L 15.293 -0.707 L 7.293 7.293 L 8 8 Z" fill="currentColor" fill-rule="nonzero"></path>
</svg>