<svg xmlns="http://www.w3.org/2000/svg" width="29.986" height="30.301" viewBox="0 0 29.986 30.301" fill="none">
  <path d="M 13.635 2.94 C 14.17 1.782 15.816 1.782 16.351 2.94 L 19.536 9.836 C 19.683 10.155 19.938 10.412 20.256 10.562 L 27.118 13.798 C 28.261 14.337 28.261 15.964 27.118 16.503 L 20.256 19.739 C 19.938 19.889 19.683 20.146 19.536 20.465 L 16.351 27.361 C 15.816 28.519 14.17 28.519 13.635 27.361 L 10.45 20.465 C 10.303 20.146 10.048 19.889 9.73 19.739 L 2.868 16.503 C 1.725 15.964 1.725 14.337 2.868 13.798 L 9.73 10.562 C 10.048 10.412 10.303 10.155 10.45 9.836 L 13.635 2.94 Z" fill="currentColor" fill-rule="nonzero"></path>
</svg>