<svg xmlns="http://www.w3.org/2000/svg" width="15.449" height="15.449" viewBox="0 0 15.449 15.449" fill="none">
  <path d="M 5.655 1.318 C 6.475 -0.439 8.974 -0.439 9.794 1.318 L 10.823 3.523 C 11.05 4.009 11.441 4.399 11.927 4.626 L 14.131 5.655 C 15.889 6.475 15.889 8.974 14.131 9.794 L 11.927 10.823 C 11.441 11.05 11.05 11.441 10.823 11.927 L 9.794 14.131 C 8.974 15.889 6.475 15.889 5.655 14.131 L 4.626 11.927 C 4.399 11.441 4.009 11.05 3.523 10.823 L 1.318 9.794 C -0.439 8.974 -0.439 6.475 1.318 5.655 L 3.523 4.626 C 4.009 4.399 4.399 4.009 4.626 3.523 L 5.655 1.318 Z" fill="currentColor" fill-rule="nonzero"></path>
</svg>