<svg width="126" height="108" viewBox="0 0 126 108" fill="none" xmlns="http://www.w3.org/2000/svg">
<path d="M61.2862 2.93968C61.821 1.78174 63.4669 1.78175 64.0016 2.93968L67.1867 9.83595C67.334 10.1548 67.5888 10.4117 67.9065 10.5615L74.7688 13.7978C75.9123 14.3371 75.9122 15.9638 74.7688 16.5031L67.9065 19.7393C67.5888 19.8892 67.334 20.146 67.1867 20.4649L64.0016 27.3612C63.4668 28.5191 61.821 28.5191 61.2862 27.3612L58.1012 20.4649C57.9539 20.146 57.6991 19.8892 57.3814 19.7393L50.5191 16.5031C49.3756 15.9638 49.3756 14.3371 50.5191 13.7978L57.3814 10.5615C57.6991 10.4117 57.9539 10.1548 58.1012 9.83595L61.2862 2.93968Z" fill="white"></path>
<path d="M91.564 59.2315C92.3841 57.4743 94.8828 57.4743 95.7029 59.2315L96.7318 61.4363C96.9587 61.9223 97.3494 62.313 97.8355 62.5399L100.04 63.5688C101.797 64.3889 101.797 66.8876 100.04 67.7077L97.8355 68.7366C97.3494 68.9635 96.9587 69.3542 96.7318 69.8403L95.7029 72.045C94.8828 73.8022 92.3841 73.8022 91.564 72.045L90.5351 69.8403C90.3082 69.3542 89.9175 68.9635 89.4314 68.7366L87.2267 67.7077C85.4695 66.8876 85.4695 64.3889 87.2267 63.5688L89.4314 62.5399C89.9175 62.313 90.3082 61.9223 90.5351 61.4363L91.564 59.2315Z" fill="white"></path>
<path d="M82.7736 63.5811C81.7871 66.2272 82.7753 69.5004 85.7433 70.8857L87.5441 71.7256L88.3859 73.5283C90.4653 77.9839 96.8005 77.9838 98.88 73.5283L99.7189 71.7305L99.7189 78.6416C99.7189 84.0312 95.3497 88.4001 89.9601 88.4004C84.5703 88.4004 80.2004 84.0314 80.2004 78.6416L80.2004 70.1836C80.2004 67.6372 81.1761 65.3187 82.7736 63.5811ZM93.7755 73.3574C93.7284 73.3603 93.6812 73.3623 93.6339 73.3623C93.6812 73.3623 93.7284 73.3603 93.7755 73.3574ZM93.6339 73.3623C93.5834 73.3623 93.533 73.3607 93.4826 73.3574C93.533 73.3607 93.5835 73.3623 93.6339 73.3623ZM93.1808 73.3174C93.277 73.3363 93.3742 73.3497 93.4718 73.3564C93.3741 73.3497 93.2771 73.3364 93.1808 73.3174ZM94.0871 73.3174C93.9924 73.3361 93.897 73.3486 93.8009 73.3555C93.8969 73.3486 93.9925 73.3361 94.0871 73.3174ZM93.1603 73.3135C93.1197 73.3051 93.0794 73.2957 93.0392 73.2852C93.0794 73.2957 93.1197 73.3051 93.1603 73.3135ZM94.2648 73.2744C94.4066 73.2345 94.5451 73.1816 94.6779 73.1143C94.5451 73.1816 94.4067 73.2345 94.2648 73.2744ZM92.7394 73.1836C92.8253 73.2195 92.913 73.2503 93.0021 73.2754C92.9129 73.2503 92.8254 73.2195 92.7394 73.1836ZM95.7023 72.0459L95.6213 72.2051C95.3916 72.6155 95.0637 72.9151 94.6906 73.1074C95.1102 72.8912 95.4723 72.538 95.7023 72.0459ZM92.3166 72.9512C92.3991 73.0091 92.485 73.0607 92.5734 73.1064C92.485 73.0607 92.3991 73.0092 92.3166 72.9512ZM86.1154 66.5947C86.3253 67.057 86.6952 67.459 87.2267 67.707L89.4318 68.7363C89.9177 68.9632 90.3085 69.3539 90.5353 69.8398L91.5636 72.0449C91.7157 72.3707 91.926 72.6358 92.172 72.8408C91.9262 72.6359 91.7156 72.3714 91.5636 72.0459L90.5343 69.8408C90.3075 69.3549 89.9168 68.9641 89.4308 68.7373L87.2267 67.708C86.695 67.4598 86.3252 67.0573 86.1154 66.5947ZM99.464 67.9766L97.8351 68.7373C97.3492 68.9642 96.9584 69.3549 96.7316 69.8408L96.3927 70.5664L96.7316 69.8398C96.9584 69.3539 97.3492 68.9632 97.8351 68.7363L99.464 67.9756V67.9766ZM85.9132 65.7881C85.9182 65.8647 85.9291 65.9408 85.9416 66.0166C85.9292 65.9408 85.9181 65.8647 85.9132 65.7881ZM90.005 62.1543C89.9198 62.2322 89.829 62.3038 89.7326 62.3682C89.829 62.3037 89.9198 62.2322 90.005 62.1543ZM90.9816 60.4795L90.5353 61.4355C90.5217 61.4648 90.5052 61.4929 90.4904 61.5215C90.5051 61.4932 90.5208 61.4655 90.5343 61.4365L90.9806 60.4795H90.9816ZM94.2443 73.2803C94.1983 73.2927 94.1522 73.3039 94.1056 73.3135C94.1522 73.3039 94.1984 73.2927 94.2443 73.2803ZM92.7189 73.1748C92.6777 73.1571 92.637 73.1384 92.5968 73.1182C92.637 73.1384 92.6778 73.1571 92.7189 73.1748ZM92.3068 72.9443C92.2725 72.9199 92.2394 72.8937 92.2062 72.8672C92.2393 72.8937 92.2725 72.9199 92.3068 72.9443Z" fill="#B2FFFB"></path>
<path d="M27.2619 63.5156C26.2343 66.1731 27.2145 69.489 30.2072 70.8857L32.008 71.7256L32.8498 73.5283C34.9292 77.9839 41.2645 77.9839 43.3439 73.5283L44.1437 71.8145L44.1437 78.6416C44.1437 84.0314 39.7747 88.4004 34.3849 88.4004C28.9952 88.4004 24.6261 84.0314 24.6261 78.6416L24.6261 70.1836C24.6262 67.6045 25.6278 65.2604 27.2619 63.5156ZM35.4425 60.4824C39.602 60.9307 42.9755 63.9922 43.8937 67.9922L42.299 68.7373C41.813 68.9642 41.4223 69.3548 41.1955 69.8408L40.1662 72.0459L40.0851 72.2051C39.1923 73.8011 36.8221 73.748 36.0275 72.0459L34.9982 69.8408C34.7713 69.3548 34.3807 68.9641 33.8947 68.7373L31.6906 67.708C29.9336 66.8879 29.9335 64.3895 31.6906 63.5693L33.8947 62.54C34.3807 62.3132 34.7714 61.9226 34.9982 61.4365L35.4425 60.4824Z" fill="#B2FFFB"></path>
<rect x="59.5934" y="73.0464" width="6.27658" height="5.02126" fill="white"></rect>
<path d="M125.288 76.8193C125.288 93.6742 111.624 107.338 94.7694 107.338C77.9145 107.338 64.2509 93.6742 64.2509 76.8193C64.2509 59.9644 77.9145 46.3008 94.7694 46.3008C111.624 46.3008 125.288 59.9644 125.288 76.8193ZM70.3546 76.8193C70.3546 90.3032 81.2855 101.234 94.7694 101.234C108.253 101.234 119.184 90.3032 119.184 76.8193C119.184 63.3354 108.253 52.4045 94.7694 52.4045C81.2855 52.4045 70.3546 63.3354 70.3546 76.8193Z" fill="white"></path>
<path d="M61.037 76.8193C61.037 93.6742 47.3734 107.338 30.5185 107.338C13.6636 107.338 0 93.6742 0 76.8193C0 59.9644 13.6636 46.3008 30.5185 46.3008C47.3734 46.3008 61.037 59.9644 61.037 76.8193ZM6.1037 76.8193C6.1037 90.3032 17.0346 101.234 30.5185 101.234C44.0024 101.234 54.9333 90.3032 54.9333 76.8193C54.9333 63.3354 44.0024 52.4045 30.5185 52.4045C17.0346 52.4045 6.1037 63.3354 6.1037 76.8193Z" fill="white"></path>
<path d="M36.0278 59.232C36.8479 57.4748 39.3465 57.4748 40.1666 59.232L41.1956 61.4367C41.4224 61.9228 41.8131 62.3135 42.2992 62.5404L44.504 63.5693C46.2612 64.3894 46.2612 66.8881 44.504 67.7082L42.2992 68.7371C41.8131 68.964 41.4224 69.3547 41.1956 69.8408L40.1666 72.0455C39.3465 73.8027 36.8479 73.8027 36.0278 72.0455L34.9988 69.8408C34.7719 69.3547 34.3812 68.964 33.8952 68.7371L31.6904 67.7082C29.9332 66.8881 29.9332 64.3894 31.6904 63.5693L33.8952 62.5404C34.3812 62.3135 34.7719 61.9228 34.9988 61.4367L36.0278 59.232Z" fill="white"></path>
</svg>