<svg xmlns="http://www.w3.org/2000/svg" width="19.518" height="27.918" viewBox="0 0 19.518 27.918" fill="none">
  <path d="M 2.636 3.033 C 1.608 5.691 2.588 9.007 5.581 10.403 L 7.382 11.243 L 8.224 13.046 C 10.303 17.501 16.638 17.501 18.718 13.046 L 19.518 11.332 L 19.518 18.159 C 19.518 23.549 15.149 27.918 9.759 27.918 C 4.369 27.918 0 23.549 0 18.159 L 0 9.701 C 0 7.122 1.002 4.778 2.636 3.033 Z M 10.816 0 C 14.976 0.448 18.349 3.51 19.268 7.51 L 17.673 8.255 C 17.187 8.482 16.796 8.872 16.569 9.358 L 15.54 11.563 L 15.459 11.723 C 14.566 13.319 12.196 13.266 11.401 11.563 L 10.372 9.358 C 10.145 8.872 9.755 8.482 9.269 8.255 L 7.064 7.226 C 5.307 6.405 5.307 3.907 7.064 3.087 L 9.269 2.058 C 9.755 1.831 10.145 1.44 10.372 0.954 L 10.816 0 Z" fill="currentColor" fill-rule="nonzero"></path>
</svg>