<svg xmlns="http://www.w3.org/2000/svg" width="19.519" height="27.921" viewBox="0 0 19.519 27.921" fill="none">
  <path d="M 2.573 3.102 C 1.587 5.748 2.575 9.021 5.543 10.406 L 7.344 11.246 L 8.186 13.049 C 10.265 17.504 16.6 17.504 18.68 13.049 L 19.519 11.251 L 19.519 18.162 C 19.519 23.552 15.149 27.921 9.76 27.921 C 4.37 27.921 0 23.552 0 18.162 L 0 9.704 C 0 7.158 0.976 4.839 2.573 3.102 Z M 13.575 12.878 C 13.528 12.881 13.481 12.883 13.434 12.883 C 13.481 12.883 13.528 12.881 13.575 12.878 Z M 13.434 12.883 C 13.383 12.883 13.333 12.881 13.282 12.878 C 13.333 12.881 13.383 12.883 13.434 12.883 Z M 12.98 12.838 C 13.077 12.857 13.174 12.87 13.271 12.877 C 13.174 12.87 13.077 12.857 12.98 12.838 Z M 13.887 12.838 C 13.792 12.857 13.697 12.869 13.601 12.876 C 13.697 12.869 13.792 12.857 13.887 12.838 Z M 12.96 12.834 C 12.919 12.826 12.879 12.816 12.839 12.806 C 12.879 12.816 12.919 12.826 12.96 12.834 Z M 14.064 12.795 C 14.206 12.755 14.345 12.702 14.478 12.635 C 14.345 12.702 14.206 12.755 14.064 12.795 Z M 12.539 12.704 C 12.625 12.74 12.713 12.771 12.802 12.796 C 12.713 12.771 12.625 12.74 12.539 12.704 Z M 15.502 11.566 L 15.421 11.726 C 15.191 12.136 14.863 12.436 14.49 12.628 C 14.91 12.412 15.272 12.058 15.502 11.566 Z M 12.116 12.472 C 12.199 12.53 12.285 12.581 12.373 12.627 C 12.285 12.581 12.199 12.53 12.116 12.472 Z M 5.915 6.115 C 6.125 6.578 6.495 6.979 7.026 7.228 L 9.231 8.257 C 9.717 8.484 10.108 8.874 10.335 9.36 L 11.363 11.565 C 11.515 11.891 11.726 12.156 11.972 12.361 C 11.726 12.156 11.515 11.892 11.363 11.566 L 10.334 9.361 C 10.107 8.875 9.716 8.485 9.23 8.258 L 7.026 7.229 C 6.495 6.98 6.125 6.578 5.915 6.115 Z M 19.264 7.497 L 17.635 8.258 C 17.149 8.485 16.758 8.875 16.531 9.361 L 16.192 10.087 L 16.531 9.36 C 16.758 8.874 17.149 8.484 17.635 8.257 L 19.264 7.496 L 19.264 7.497 Z M 5.713 5.309 C 5.718 5.385 5.729 5.461 5.741 5.537 C 5.729 5.461 5.718 5.385 5.713 5.309 Z M 9.805 1.675 C 9.719 1.753 9.629 1.824 9.532 1.889 C 9.629 1.824 9.719 1.753 9.805 1.675 Z M 10.781 0 L 10.335 0.956 C 10.321 0.985 10.305 1.013 10.29 1.042 C 10.305 1.014 10.32 0.986 10.334 0.957 L 10.78 0 L 10.781 0 Z M 14.044 12.801 C 13.998 12.813 13.952 12.824 13.905 12.834 C 13.952 12.824 13.998 12.813 14.044 12.801 Z M 12.519 12.695 C 12.477 12.678 12.437 12.659 12.396 12.639 C 12.437 12.659 12.477 12.678 12.519 12.695 Z M 12.106 12.465 C 12.072 12.44 12.039 12.414 12.006 12.388 C 12.039 12.414 12.072 12.44 12.106 12.465 Z" fill="currentColor" fill-rule="nonzero"></path>
</svg>