<svg xmlns="http://www.w3.org/2000/svg" width="20" height="20" viewBox="0 0 20 20" fill="none">
  <path d="M 2.222 20 L 17.778 20 C 19 20 20 19 20 17.778 L 20 2.222 C 20 1 19 0 17.778 0 L 2.222 0 C 1 0 0 1 0 2.222 L 0 17.778 C 0 19 1 20 2.222 20 Z M 6.111 4.444 C 7.033 4.444 7.778 5.189 7.778 6.111 C 7.778 7.033 7.033 7.778 6.111 7.778 C 5.189 7.778 4.444 7.033 4.444 6.111 C 4.444 5.189 5.189 4.444 6.111 4.444 Z M 2.222 16.011 L 5.556 12.678 L 6.989 14.111 C 7.422 14.544 8.122 14.544 8.556 14.111 L 14.433 8.233 L 17.767 11.567 L 17.767 17.778 L 2.211 17.778 L 2.211 16.011 L 2.222 16.011 Z" fill="currentColor" fill-rule="nonzero"></path>
</svg>