<svg xmlns="http://www.w3.org/2000/svg" width="20" height="20" viewBox="0 0 20 20" fill="none">
  <path d="M 3.333 15.556 C 3.333 13.333 7.778 12.111 10 12.111 C 12.222 12.111 16.667 13.333 16.667 15.556 L 16.667 16.667 L 3.333 16.667 M 13.333 6.667 C 13.333 7.551 12.982 8.399 12.357 9.024 C 11.732 9.649 10.884 10 10 10 C 9.116 10 8.268 9.649 7.643 9.024 C 7.018 8.399 6.667 7.551 6.667 6.667 C 6.667 5.783 7.018 4.935 7.643 4.31 C 8.268 3.685 9.116 3.333 10 3.333 C 10.884 3.333 11.732 3.685 12.357 4.31 C 12.982 4.935 13.333 5.783 13.333 6.667 Z M 0 2.222 L 0 17.778 C 0 18.367 0.234 18.932 0.651 19.349 C 1.068 19.766 1.633 20 2.222 20 L 17.778 20 C 18.367 20 18.932 19.766 19.349 19.349 C 19.766 18.932 20 18.367 20 17.778 L 20 2.222 C 20 1.633 19.766 1.068 19.349 0.651 C 18.932 0.234 18.367 0 17.778 0 L 2.222 0 C 1.633 0 1.068 0.234 0.651 0.651 C 0.234 1.068 0 1.633 0 2.222 Z" fill="currentColor" fill-rule="nonzero"></path>
</svg>