<svg width="20" height="20" viewBox="0 0 20 20" fill="none" xmlns="http://www.w3.org/2000/svg">
<path d="M2.22222 20C1.61111 20 1.08796 19.7824 0.652778 19.3472C0.217593 18.912 0 18.3889 0 17.7778V2.22222C0 1.61111 0.217593 1.08796 0.652778 0.652778C1.08796 0.217593 1.61111 0 2.22222 0H17.7778C18.3889 0 18.912 0.217593 19.3472 0.652778C19.7824 1.08796 20 1.61111 20 2.22222V17.7778C20 18.3889 19.7824 18.912 19.3472 19.3472C18.912 19.7824 18.3889 20 17.7778 20H2.22222ZM2.22222 15.5V17.7778H17.7778V8.05556L11.1667 15.5556L6.66667 11.0556L2.22222 15.5ZM2.22222 12.3333L6.66667 7.88889L11.0556 12.2778L17.7778 4.72222V2.22222H2.22222V12.3333ZM2.22222 8.05556V4.72222V12.2778V7.88889V15.5V11.0556V15.5556V8.05556ZM2.22222 12.3333V2.22222V12.2778V7.88889V12.3333ZM2.22222 15.5V11.0556V15.5556V8.05556V17.7778V15.5Z" fill="#A6B1B9"></path>
</svg>