<svg width="12" height="10" viewBox="0 0 12 10" fill="none" xmlns="http://www.w3.org/2000/svg">
<path d="M9.78932 1.21902C10.1043 1.10964 10.2731 0.756126 10.1681 0.428001C10.0631 0.0998762 9.7237 -0.0759051 9.41058 0.0315168L7.29183 0.767845C7.0312 0.30886 6.54933 0.000266763 5.99995 0.000266763C5.1712 0.000266763 4.49995 0.699485 4.49995 1.56277C4.49995 1.62136 4.5037 1.678 4.50933 1.73464L2.21058 2.53152C1.89558 2.64089 1.72683 2.99441 1.83183 3.32253C1.93683 3.65066 2.2762 3.82644 2.5912 3.71706L5.13183 2.83425C5.2162 2.89675 5.3062 2.94949 5.40183 2.99441V9.37527C5.40183 9.72097 5.66995 10.0003 6.00183 10.0003H9.59995C9.93183 10.0003 10.2 9.72097 10.2 9.37527C10.2 9.02956 9.93183 8.75027 9.59995 8.75027H6.59995V2.99441C6.9937 2.81472 7.29745 2.46706 7.4287 2.03738L9.78932 1.21706V1.21902ZM8.24245 5.62527L9.59995 3.19949L10.9575 5.62527H8.24245ZM9.59995 7.50027C10.7793 7.50027 11.76 6.8362 11.9625 5.95925C12.0112 5.74441 11.9437 5.5237 11.8368 5.3323L10.0518 2.1448C9.95807 1.97683 9.78558 1.87527 9.59995 1.87527C9.41433 1.87527 9.24183 1.97878 9.14808 2.1448L7.36308 5.33425C7.2562 5.52566 7.1887 5.74636 7.23745 5.9612C7.43995 6.8362 8.42058 7.50027 9.59995 7.50027ZM2.42245 5.69949L3.77995 8.12527H1.06308L2.42058 5.69949H2.42245ZM0.0599505 8.45925C0.262451 9.3362 1.24308 10.0003 2.42245 10.0003C3.60183 10.0003 4.58245 9.3362 4.78495 8.45925C4.8337 8.24441 4.7662 8.0237 4.65933 7.8323L2.87245 4.6448C2.7787 4.47683 2.6062 4.37527 2.42058 4.37527C2.23495 4.37527 2.06245 4.47878 1.9687 4.6448L0.185576 7.83425C0.0787005 8.02566 0.0112005 8.24636 0.0599505 8.4612V8.45925Z" fill="#4A5660"></path>
</svg>