<svg width="32" height="32" viewBox="0 0 32 32" fill="none" xmlns="http://www.w3.org/2000/svg">
<g filter="url(#filter0_d_585_2494)">
<path d="M15.7106 3.28572C15.8252 3.04014 16.1744 3.04014 16.2891 3.28572L17.0114 4.83353C17.0431 4.90146 17.0977 4.95606 17.1657 4.98777L18.7135 5.71013C18.9591 5.82475 18.9591 6.17395 18.7135 6.28856L17.1657 7.01093C17.0977 7.04263 17.0431 7.09724 17.0114 7.16517L16.2891 8.71298C16.1744 8.95856 15.8252 8.95856 15.7106 8.71298L14.9883 7.16517C14.9566 7.09724 14.9019 7.04263 14.834 7.01093L13.2862 6.28856C13.0406 6.17395 13.0406 5.82475 13.2862 5.71013L14.834 4.98777C14.9019 4.95606 14.9566 4.90146 14.9883 4.83353L15.7106 3.28572Z" fill="white"></path>
<path d="M22.7991 16.9041C22.9767 16.5378 23.4985 16.5378 23.6761 16.9041L23.9435 17.4553C23.9934 17.5582 24.0779 17.6403 24.1823 17.6872L24.7087 17.9236C25.0924 18.0958 25.0924 18.6405 24.7087 18.8128L24.1823 19.0492C24.0779 19.096 23.9934 19.1781 23.9435 19.2811L23.6761 19.8323C23.4985 20.1985 22.9767 20.1985 22.7991 19.8323L22.5317 19.2811C22.4818 19.1781 22.3972 19.096 22.2929 19.0492L21.7664 18.8128C21.3828 18.6405 21.3828 18.0958 21.7664 17.9236L22.2929 17.6872C22.3972 17.6403 22.4818 17.5582 22.5317 17.4553L22.7991 16.9041Z" fill="white"></path>
<path d="M20.8225 17.8945C20.5888 18.4701 20.8006 19.1991 21.4592 19.4951L21.8987 19.6914L22.1252 20.1582C22.5757 21.0868 23.8984 21.0868 24.3489 20.1582L24.5745 19.6924L24.6184 19.6719L24.6184 21.1279C24.6183 22.3515 23.6262 23.3437 22.4026 23.3437C21.1791 23.3437 20.1869 22.3515 20.1868 21.1279L20.1868 19.4473C20.1869 18.8425 20.4296 18.2943 20.8225 17.8945ZM23.3293 20.0977C23.328 20.0979 23.3268 20.0984 23.3254 20.0986C23.3268 20.0984 23.328 20.0979 23.3293 20.0977ZM23.3918 20.0811C23.3892 20.0819 23.3867 20.0832 23.384 20.084C23.3867 20.0832 23.3892 20.0819 23.3918 20.0811ZM23.4592 20.0537C23.4528 20.0569 23.4462 20.0596 23.4397 20.0625C23.4462 20.0595 23.4528 20.057 23.4592 20.0537ZM23.676 19.832L23.6389 19.8965C23.6252 19.9166 23.6099 19.9349 23.594 19.9521C23.6253 19.918 23.653 19.8785 23.675 19.833L23.884 19.4023L23.676 19.832ZM21.718 17.9492C21.7336 17.9401 21.7497 17.9305 21.7668 17.9229L22.2932 17.6875C22.3975 17.6406 22.4816 17.557 22.5315 17.4541L22.6331 17.2441H22.634L22.5315 17.4561C22.4816 17.559 22.3966 17.6416 22.2922 17.6885L21.7659 17.9248C21.7492 17.9323 21.7332 17.9404 21.718 17.9492Z" fill="white"></path>
<path d="M9.28638 16.9041C9.46402 16.5378 9.98576 16.5378 10.1634 16.9041L10.4308 17.4553C10.4807 17.5582 10.5652 17.6403 10.6696 17.6872L11.196 17.9236C11.5797 18.0958 11.5797 18.6405 11.196 18.8128L10.6696 19.0492C10.5652 19.096 10.4807 19.1781 10.4308 19.2811L10.1634 19.8323C9.98576 20.1985 9.46402 20.1985 9.28638 19.8323L9.01903 19.2811C8.9691 19.1781 8.88454 19.096 8.78017 19.0492L8.25375 18.8128C7.87012 18.6405 7.87012 18.0958 8.25375 17.9236L8.78017 17.6872C8.88454 17.6403 8.9691 17.5582 9.01903 17.4553L9.28638 16.9041Z" fill="white"></path>
<path d="M7.31714 17.875C7.07087 18.4531 7.28109 19.1949 7.94702 19.4941L8.38647 19.6914L8.61304 20.1582C9.06357 21.0864 10.3862 21.0864 10.8367 20.1582L11.0623 19.6914L11.0984 19.6748L11.0984 21.124C11.0983 22.3475 10.1061 23.3397 8.88257 23.3398C7.65898 23.3398 6.66684 22.3476 6.66675 21.124L6.66675 19.4434C6.66687 18.8308 6.91524 18.276 7.31714 17.875ZM9.01929 19.2803L9.28687 19.8311C9.29798 19.854 9.3104 19.8754 9.32397 19.8955C9.31011 19.8754 9.29707 19.8541 9.28589 19.8311L9.01831 19.2803L8.97534 19.207C8.99193 19.2299 9.0068 19.2545 9.01929 19.2803ZM9.12183 17.2422L9.01929 17.4541H9.01831L9.12085 17.2422H9.12183Z" fill="white"></path>
<rect x="14.6665" y="20" width="2.66667" height="1.33333" fill="white"></rect>
<path d="M29.8885 20.0007C29.8885 23.6825 26.9037 26.6673 23.2218 26.6673C19.5399 26.6673 16.5552 23.6825 16.5552 20.0007C16.5552 16.3188 19.5399 13.334 23.2218 13.334C26.9037 13.334 29.8885 16.3188 29.8885 20.0007ZM18.2218 20.0007C18.2218 22.7621 20.4604 25.0007 23.2218 25.0007C25.9833 25.0007 28.2218 22.7621 28.2218 20.0007C28.2218 17.2392 25.9833 15.0007 23.2218 15.0007C20.4604 15.0007 18.2218 17.2392 18.2218 20.0007Z" fill="white"></path>
<path d="M15.4439 20.0007C15.4439 23.6825 12.4592 26.6673 8.77726 26.6673C5.09536 26.6673 2.1106 23.6825 2.1106 20.0007C2.1106 16.3188 5.09536 13.334 8.77726 13.334C12.4592 13.334 15.4439 16.3188 15.4439 20.0007ZM3.77726 20.0007C3.77726 22.7621 6.01584 25.0007 8.77726 25.0007C11.5387 25.0007 13.7773 22.7621 13.7773 20.0007C13.7773 17.2392 11.5387 15.0007 8.77726 15.0007C6.01584 15.0007 3.77726 17.2392 3.77726 20.0007Z" fill="white"></path>
</g>
<defs>
<filter id="filter0_d_585_2494" x="-1.66675" y="-1" width="35.3333" height="35.334" filterUnits="userSpaceOnUse" color-interpolation-filters="sRGB">
<feFlood flood-opacity="0" result="BackgroundImageFix"></feFlood>
<feColorMatrix in="SourceAlpha" type="matrix" values="0 0 0 0 0 0 0 0 0 0 0 0 0 0 0 0 0 0 127 0" result="hardAlpha"></feColorMatrix>
<feOffset dy="2"></feOffset>
<feGaussianBlur stdDeviation="1.5"></feGaussianBlur>
<feComposite in2="hardAlpha" operator="out"></feComposite>
<feColorMatrix type="matrix" values="0 0 0 0 0 0 0 0 0 0 0 0 0 0 0 0 0 0 0.1 0"></feColorMatrix>
<feBlend mode="normal" in2="BackgroundImageFix" result="effect1_dropShadow_585_2494"></feBlend>
<feBlend mode="normal" in="SourceGraphic" in2="effect1_dropShadow_585_2494" result="shape"></feBlend>
</filter>
</defs>
</svg>