<svg width="32" height="32" viewBox="0 0 32 32" fill="none" xmlns="http://www.w3.org/2000/svg">
<g filter="url(#filter0_d_578_2442)">
<path d="M15.7109 3.28633C15.8255 3.04075 16.1747 3.04075 16.2893 3.28633L17.0117 4.83414C17.0434 4.90207 17.098 4.95667 17.1659 4.98838L18.7137 5.71074C18.9593 5.82536 18.9593 6.17456 18.7137 6.28917L17.1659 7.01154C17.098 7.04325 17.0434 7.09785 17.0117 7.16578L16.2893 8.71359C16.1747 8.95917 15.8255 8.95917 15.7109 8.71359L14.9885 7.16578C14.9568 7.09785 14.9022 7.04325 14.8343 7.01154L13.2864 6.28917C13.0409 6.17456 13.0409 5.82536 13.2864 5.71074L14.8343 4.98838C14.9022 4.95667 14.9568 4.90207 14.9885 4.83414L15.7109 3.28633Z" fill="white"></path>
<path d="M22.7991 16.9041C22.9767 16.5378 23.4985 16.5378 23.6761 16.9041L23.9435 17.4553C23.9934 17.5582 24.0779 17.6403 24.1823 17.6872L24.7087 17.9236C25.0924 18.0958 25.0924 18.6405 24.7087 18.8128L24.1823 19.0492C24.0779 19.096 23.9934 19.1781 23.9435 19.2811L23.6761 19.8323C23.4985 20.1985 22.9767 20.1985 22.7991 19.8323L22.5317 19.2811C22.4818 19.1781 22.3972 19.096 22.2929 19.0492L21.7664 18.8128C21.3828 18.6405 21.3828 18.0958 21.7664 17.9236L22.2929 17.6872C22.3972 17.6403 22.4818 17.5582 22.5317 17.4553L22.7991 16.9041Z" fill="white"></path>
<path d="M20.8226 17.8942C20.5889 18.4697 20.8008 19.1987 21.4594 19.4948L21.8988 19.691L22.1254 20.1578C22.5758 21.0865 23.8985 21.0864 24.349 20.1578L24.5746 19.692L24.6185 19.6715L24.6185 21.1276C24.6184 22.3511 23.6263 23.3434 22.4027 23.3434C21.1792 23.3433 20.187 22.3511 20.1869 21.1276L20.1869 19.4469C20.187 18.8421 20.4297 18.2939 20.8226 17.8942ZM23.3295 20.0973C23.3282 20.0975 23.3269 20.098 23.3256 20.0983C23.3269 20.098 23.3281 20.0975 23.3295 20.0973ZM23.392 20.0807C23.3893 20.0816 23.3868 20.0828 23.3842 20.0836C23.3868 20.0828 23.3893 20.0816 23.392 20.0807ZM23.4594 20.0533C23.453 20.0566 23.4463 20.0592 23.4398 20.0621C23.4463 20.0592 23.453 20.0566 23.4594 20.0533ZM23.6761 19.8317L23.639 19.8961C23.6253 19.9163 23.61 19.9345 23.5941 19.9518C23.6254 19.9176 23.6531 19.8781 23.6752 19.8326L23.8842 19.402L23.6761 19.8317ZM21.7181 17.9489C21.7338 17.9397 21.7498 17.9302 21.767 17.9225L22.2933 17.6871C22.3976 17.6402 22.4817 17.5566 22.5316 17.4537L22.6332 17.2438H22.6342L22.5316 17.4557C22.4817 17.5586 22.3967 17.6412 22.2924 17.6881L21.766 17.9244C21.7493 17.9319 21.7334 17.94 21.7181 17.9489Z" fill="white"></path>
<path d="M9.28687 16.9041C9.46451 16.5378 9.98625 16.5378 10.1639 16.9041L10.4312 17.4553C10.4812 17.5582 10.5657 17.6403 10.6701 17.6872L11.1965 17.9236C11.5802 18.0958 11.5802 18.6405 11.1965 18.8128L10.6701 19.0492C10.5657 19.096 10.4812 19.1781 10.4312 19.2811L10.1639 19.8323C9.98625 20.1985 9.46451 20.1985 9.28687 19.8323L9.01952 19.2811C8.96959 19.1781 8.88503 19.096 8.78066 19.0492L8.25424 18.8128C7.87061 18.6405 7.87061 18.0958 8.25424 17.9236L8.78066 17.6872C8.88503 17.6403 8.96959 17.5582 9.01952 17.4553L9.28687 16.9041Z" fill="white"></path>
<path d="M7.3175 17.876C7.07124 18.454 7.28146 19.1959 7.94739 19.4951L8.38684 19.6924L8.6134 20.1592C9.06394 21.0874 10.3865 21.0874 10.837 20.1592L11.0626 19.6924L11.0988 19.6758L11.0988 21.125C11.0987 22.3485 10.1064 23.3407 8.88293 23.3408C7.65935 23.3408 6.66721 22.3486 6.66711 21.125L6.66711 19.4443C6.66723 18.8318 6.9156 18.277 7.3175 17.876ZM9.01965 19.2812L9.28723 19.832C9.29834 19.8549 9.31076 19.8764 9.32434 19.8965C9.31048 19.8764 9.29743 19.8551 9.28625 19.832L9.01868 19.2812L8.97571 19.208C8.99229 19.2309 9.00717 19.2555 9.01965 19.2812ZM9.12219 17.2432L9.01965 17.4551H9.01868L9.12122 17.2432H9.12219Z" fill="white"></path>
<rect x="14.6669" y="20" width="2.66667" height="1.33333" fill="white"></rect>
<path d="M29.8889 20C29.8889 23.6819 26.9041 26.6667 23.2222 26.6667C19.5403 26.6667 16.5555 23.6819 16.5555 20C16.5555 16.3181 19.5403 13.3334 23.2222 13.3334C26.9041 13.3334 29.8889 16.3181 29.8889 20ZM18.2222 20C18.2222 22.7615 20.4608 25 23.2222 25C25.9836 25 28.2222 22.7615 28.2222 20C28.2222 17.2386 25.9836 15 23.2222 15C20.4608 15 18.2222 17.2386 18.2222 20Z" fill="white"></path>
<path d="M15.4442 20C15.4442 23.6819 12.4594 26.6667 8.77751 26.6667C5.09561 26.6667 2.11084 23.6819 2.11084 20C2.11084 16.3181 5.09561 13.3334 8.77751 13.3334C12.4594 13.3334 15.4442 16.3181 15.4442 20ZM3.77751 20C3.77751 22.7615 6.01608 25 8.77751 25C11.5389 25 13.7775 22.7615 13.7775 20C13.7775 17.2386 11.5389 15 8.77751 15C6.01608 15 3.77751 17.2386 3.77751 20Z" fill="white"></path>
</g>
<defs>
<filter id="filter0_d_578_2442" x="-1.66663" y="-1" width="35.3334" height="35.3334" filterUnits="userSpaceOnUse" color-interpolation-filters="sRGB">
<feFlood flood-opacity="0" result="BackgroundImageFix"></feFlood>
<feColorMatrix in="SourceAlpha" type="matrix" values="0 0 0 0 0 0 0 0 0 0 0 0 0 0 0 0 0 0 127 0" result="hardAlpha"></feColorMatrix>
<feOffset dy="2"></feOffset>
<feGaussianBlur stdDeviation="1.5"></feGaussianBlur>
<feComposite in2="hardAlpha" operator="out"></feComposite>
<feColorMatrix type="matrix" values="0 0 0 0 0 0 0 0 0 0 0 0 0 0 0 0 0 0 0.1 0"></feColorMatrix>
<feBlend mode="normal" in2="BackgroundImageFix" result="effect1_dropShadow_578_2442"></feBlend>
<feBlend mode="normal" in="SourceGraphic" in2="effect1_dropShadow_578_2442" result="shape"></feBlend>
</filter>
</defs>
</svg>