<svg width="18" height="20" viewBox="0 0 18 20" fill="none" xmlns="http://www.w3.org/2000/svg">
<path d="M9 0C6.59091 0 4.63636 1.67969 4.63636 3.75V10C4.63636 12.0703 6.59091 13.75 9 13.75C11.4091 13.75 13.3636 12.0703 13.3636 10V3.75C13.3636 1.67969 11.4091 0 9 0ZM3.18182 8.4375C3.18182 7.91797 2.69545 7.5 2.09091 7.5C1.48636 7.5 1 7.91797 1 8.4375V10C1 13.4805 4.00909 16.3555 7.90909 16.8125V18.125H5.72727C5.12273 18.125 4.63636 18.543 4.63636 19.0625C4.63636 19.582 5.12273 20 5.72727 20H9H12.2727C12.8773 20 13.3636 19.582 13.3636 19.0625C13.3636 18.543 12.8773 18.125 12.2727 18.125H10.0909V16.8125C13.9909 16.3555 17 13.4805 17 10V8.4375C17 7.91797 16.5136 7.5 15.9091 7.5C15.3045 7.5 14.8182 7.91797 14.8182 8.4375V10C14.8182 12.7617 12.2136 15 9 15C5.78636 15 3.18182 12.7617 3.18182 10V8.4375Z" fill="#4A5660"></path>
</svg>