<svg width="15" height="12" viewBox="0 0 15 12" fill="none" xmlns="http://www.w3.org/2000/svg">
<path d="M7.5 0C7.91484 0 8.25 0.335156 8.25 0.75V2.25H11.0625C11.9953 2.25 12.75 3.00469 12.75 3.9375V10.3125C12.75 11.2453 11.9953 12 11.0625 12H3.9375C3.00469 12 2.25 11.2453 2.25 10.3125V3.9375C2.25 3.00469 3.00469 2.25 3.9375 2.25H6.75V0.75C6.75 0.335156 7.08516 0 7.5 0ZM4.875 9C4.66875 9 4.5 9.16875 4.5 9.375C4.5 9.58125 4.66875 9.75 4.875 9.75H5.625C5.83125 9.75 6 9.58125 6 9.375C6 9.16875 5.83125 9 5.625 9H4.875ZM7.125 9C6.91875 9 6.75 9.16875 6.75 9.375C6.75 9.58125 6.91875 9.75 7.125 9.75H7.875C8.08125 9.75 8.25 9.58125 8.25 9.375C8.25 9.16875 8.08125 9 7.875 9H7.125ZM9.375 9C9.16875 9 9 9.16875 9 9.375C9 9.58125 9.16875 9.75 9.375 9.75H10.125C10.3313 9.75 10.5 9.58125 10.5 9.375C10.5 9.16875 10.3313 9 10.125 9H9.375ZM6.1875 6C6.1875 5.75136 6.08873 5.5129 5.91291 5.33709C5.7371 5.16127 5.49864 5.0625 5.25 5.0625C5.00136 5.0625 4.7629 5.16127 4.58709 5.33709C4.41127 5.5129 4.3125 5.75136 4.3125 6C4.3125 6.24864 4.41127 6.4871 4.58709 6.66291C4.7629 6.83873 5.00136 6.9375 5.25 6.9375C5.49864 6.9375 5.7371 6.83873 5.91291 6.66291C6.08873 6.4871 6.1875 6.24864 6.1875 6ZM9.75 6.9375C9.99864 6.9375 10.2371 6.83873 10.4129 6.66291C10.5887 6.4871 10.6875 6.24864 10.6875 6C10.6875 5.75136 10.5887 5.5129 10.4129 5.33709C10.2371 5.16127 9.99864 5.0625 9.75 5.0625C9.50136 5.0625 9.2629 5.16127 9.08709 5.33709C8.91127 5.5129 8.8125 5.75136 8.8125 6C8.8125 6.24864 8.91127 6.4871 9.08709 6.66291C9.2629 6.83873 9.50136 6.9375 9.75 6.9375ZM1.125 5.25H1.5V9.75H1.125C0.503906 9.75 0 9.24609 0 8.625V6.375C0 5.75391 0.503906 5.25 1.125 5.25ZM13.875 5.25C14.4961 5.25 15 5.75391 15 6.375V8.625C15 9.24609 14.4961 9.75 13.875 9.75H13.5V5.25H13.875Z" fill="#4A5660"></path>
</svg>