<svg width="18" height="20" viewBox="0 0 18 20" fill="none" xmlns="http://www.w3.org/2000/svg">
<path d="M8.9999 0C8.28874 0 7.71419 0.558594 7.71419 1.25V2C4.78115 2.57812 2.57133 5.10156 2.57133 8.125V8.85938C2.57133 10.6953 1.87624 12.4688 0.62267 13.8438L0.325349 14.168C-0.0121513 14.5352 -0.0925084 15.0625 0.112402 15.5117C0.317313 15.9609 0.779367 16.25 1.28562 16.25H16.7142C17.2204 16.25 17.6785 15.9609 17.8874 15.5117C18.0963 15.0625 18.012 14.5352 17.6745 14.168L17.3771 13.8438C16.1236 12.4688 15.4285 10.6992 15.4285 8.85938V8.125C15.4285 5.10156 13.2187 2.57812 10.2856 2V1.25C10.2856 0.558594 9.71106 0 8.9999 0ZM10.82 19.2695C11.3021 18.8008 11.5713 18.1641 11.5713 17.5H8.9999H6.42847C6.42847 18.1641 6.69767 18.8008 7.17981 19.2695C7.66196 19.7383 8.31687 20 8.9999 20C9.68294 20 10.3378 19.7383 10.82 19.2695Z" fill="#4A5660"></path>
</svg>