<svg width="21" height="18" viewBox="0 0 21 18" fill="none" xmlns="http://www.w3.org/2000/svg">
<path d="M2.34722 0C1.12153 0 0.125 1.00898 0.125 2.25V12.375C0.125 13.616 1.12153 14.625 2.34722 14.625H8.45833L8.08681 15.75H5.68056C5.06597 15.75 4.56944 16.2527 4.56944 16.875C4.56944 17.4973 5.06597 18 5.68056 18H14.5694C15.184 18 15.6806 17.4973 15.6806 16.875C15.6806 16.2527 15.184 15.75 14.5694 15.75H12.1632L11.7917 14.625H17.9028C19.1285 14.625 20.125 13.616 20.125 12.375V2.25C20.125 1.00898 19.1285 0 17.9028 0H2.34722ZM17.9028 2.25V12.375H2.34722V2.25H17.9028Z" fill="#4A5660"></path>
</svg>