<svg width="18" height="16" viewBox="0 0 18 16" fill="none" xmlns="http://www.w3.org/2000/svg">
<path d="M3 16C2.44772 16 2 15.5523 2 15V10C2 9.44771 1.55228 9 1 9C0.447715 9 0 8.55229 0 8C0 7.44772 0.447715 7 1 7H5C5.55228 7 6 7.44772 6 8C6 8.55229 5.55228 9 5 9C4.44772 9 4 9.44772 4 10V15C4 15.5523 3.55228 16 3 16ZM3 5C2.44772 5 2 4.55228 2 4V1C2 0.447715 2.44772 0 3 0C3.55228 0 4 0.447715 4 1V4C4 4.55228 3.55228 5 3 5ZM7 5C6.44772 5 6 4.55228 6 4C6 3.44772 6.44772 3 7 3C7.55228 3 8 2.55228 8 2V1C8 0.447715 8.44771 0 9 0C9.55229 0 10 0.447715 10 1V2C10 2.55228 10.4477 3 11 3C11.5523 3 12 3.44772 12 4C12 4.55228 11.5523 5 11 5H7ZM9 16C8.44771 16 8 15.5523 8 15V8C8 7.44772 8.44771 7 9 7C9.55229 7 10 7.44772 10 8V15C10 15.5523 9.55229 16 9 16ZM15 16C14.4477 16 14 15.5523 14 15V14C14 13.4477 13.5523 13 13 13C12.4477 13 12 12.5523 12 12C12 11.4477 12.4477 11 13 11H17C17.5523 11 18 11.4477 18 12C18 12.5523 17.5523 13 17 13C16.4477 13 16 13.4477 16 14V15C16 15.5523 15.5523 16 15 16ZM15 9C14.4477 9 14 8.55229 14 8V1C14 0.447715 14.4477 0 15 0C15.5523 0 16 0.447715 16 1V8C16 8.55229 15.5523 9 15 9Z" fill="#A6B1B9"></path>
</svg>