<svg width="32" height="31" viewBox="0 0 32 31" fill="none" xmlns="http://www.w3.org/2000/svg">
<g filter="url(#filter0_d_578_2303)">
<path d="M10.8333 26.6167C9.21107 25.9167 7.7944 24.9611 6.58329 23.75C5.37218 22.5389 4.41663 21.1222 3.71663 19.5C3.01663 17.8778 2.66663 16.15 2.66663 14.3167C2.66663 12.4833 3.01663 10.7611 3.71663 9.15C4.41663 7.53889 5.37218 6.12778 6.58329 4.91667C7.7944 3.70556 9.21107 2.75 10.8333 2.05C12.4555 1.35 14.1777 1 16 1C16.3777 1 16.6944 1.12778 16.95 1.38333C17.2055 1.63889 17.3333 1.95556 17.3333 2.33333C17.3333 2.71111 17.2055 3.02778 16.95 3.28333C16.6944 3.53889 16.3777 3.66667 16 3.66667C13.0444 3.66667 10.5277 4.70556 8.44996 6.78333C6.37218 8.86111 5.33329 11.3778 5.33329 14.3333C5.33329 17.2889 6.37218 19.8056 8.44996 21.8833C10.5277 23.9611 13.0444 25 16 25C18.9555 25 21.4722 23.9611 23.55 21.8833C25.6277 19.8056 26.6666 17.2889 26.6666 14.3333C26.6666 13.9556 26.7944 13.6389 27.05 13.3833C27.3055 13.1278 27.6222 13 28 13C28.3777 13 28.6944 13.1278 28.95 13.3833C29.2055 13.6389 29.3333 13.9556 29.3333 14.3333C29.3333 16.1556 28.9833 17.8778 28.2833 19.5C27.5833 21.1222 26.6277 22.5389 25.4166 23.75C24.2055 24.9611 22.7944 25.9167 21.1833 26.6167C19.5722 27.3167 17.85 27.6667 16.0166 27.6667C14.1833 27.6667 12.4555 27.3167 10.8333 26.6167Z" fill="white"></path>
</g>
<defs>
<filter id="filter0_d_578_2303" x="-0.333374" y="0" width="32.6666" height="32.6666" filterUnits="userSpaceOnUse" color-interpolation-filters="sRGB">
<feFlood flood-opacity="0" result="BackgroundImageFix"></feFlood>
<feColorMatrix in="SourceAlpha" type="matrix" values="0 0 0 0 0 0 0 0 0 0 0 0 0 0 0 0 0 0 127 0" result="hardAlpha"></feColorMatrix>
<feOffset dy="2"></feOffset>
<feGaussianBlur stdDeviation="1.5"></feGaussianBlur>
<feComposite in2="hardAlpha" operator="out"></feComposite>
<feColorMatrix type="matrix" values="0 0 0 0 0 0 0 0 0 0 0 0 0 0 0 0 0 0 0.1 0"></feColorMatrix>
<feBlend mode="normal" in2="BackgroundImageFix" result="effect1_dropShadow_578_2303"></feBlend>
<feBlend mode="normal" in="SourceGraphic" in2="effect1_dropShadow_578_2303" result="shape"></feBlend>
</filter>
</defs>
</svg>