<svg width="15" height="18" viewBox="0 0 15 18" fill="none" xmlns="http://www.w3.org/2000/svg">
<path d="M12.293 9.24609C12.2852 7.8125 12.9336 6.73047 14.2461 5.93359C13.5117 4.88281 12.4023 4.30469 10.9375 4.19141C9.55078 4.08203 8.03516 5 7.48047 5C6.89453 5 5.55078 4.23047 4.49609 4.23047C2.31641 4.26562 0 5.96875 0 9.43359C0 10.457 0.1875 11.5143 0.5625 12.6055C1.0625 14.0391 2.86719 17.5547 4.75 17.4961C5.73438 17.4727 6.42969 16.7969 7.71094 16.7969C8.95312 16.7969 9.59766 17.4961 10.6953 17.4961C12.5937 17.4688 14.2266 14.2734 14.7031 12.8359C12.1562 11.6367 12.293 9.32031 12.293 9.24609ZM10.082 2.83203C11.1484 1.56641 11.0508 0.414062 11.0195 0C10.0781 0.0546875 8.98828 0.640625 8.36719 1.36328C7.68359 2.13672 7.28125 3.09375 7.36719 4.17188C8.38672 4.25 9.31641 3.72656 10.082 2.83203Z" fill="white"></path>
</svg>