<svg width="20" height="20" viewBox="0 0 20 20" fill="none" xmlns="http://www.w3.org/2000/svg">
<path d="M3.33333 15.5556C3.33333 13.3333 7.77778 12.1111 10 12.1111C12.2222 12.1111 16.6667 13.3333 16.6667 15.5556V16.6667H3.33333M13.3333 6.66667C13.3333 7.55072 12.9821 8.39857 12.357 9.02369C11.7319 9.64881 10.8841 10 10 10C9.11595 10 8.2681 9.64881 7.64298 9.02369C7.01786 8.39857 6.66667 7.55072 6.66667 6.66667C6.66667 5.78261 7.01786 4.93477 7.64298 4.30964C8.2681 3.68452 9.11595 3.33333 10 3.33333C10.8841 3.33333 11.7319 3.68452 12.357 4.30964C12.9821 4.93477 13.3333 5.78261 13.3333 6.66667ZM0 2.22222V17.7778C0 18.3671 0.234126 18.9324 0.650874 19.3491C1.06762 19.7659 1.63285 20 2.22222 20H17.7778C18.3671 20 18.9324 19.7659 19.3491 19.3491C19.7659 18.9324 20 18.3671 20 17.7778V2.22222C20 1.63285 19.7659 1.06762 19.3491 0.650874C18.9324 0.234126 18.3671 0 17.7778 0H2.22222C1.63285 0 1.06762 0.234126 0.650874 0.650874C0.234126 1.06762 0 1.63285 0 2.22222Z" fill="#A6B1B9"></path>
</svg>