<svg width="20" height="18" viewBox="0 0 20 18" fill="none" xmlns="http://www.w3.org/2000/svg">
<path d="M5.82422 1.28125L5.41797 2.5H2.5C1.12109 2.5 0 3.62109 0 5V15C0 16.3789 1.12109 17.5 2.5 17.5H17.5C18.8789 17.5 20 16.3789 20 15V5C20 3.62109 18.8789 2.5 17.5 2.5H14.582L14.1758 1.28125C13.9219 0.515625 13.207 0 12.3984 0H7.60156C6.79297 0 6.07812 0.515625 5.82422 1.28125ZM10 6.25C10.9946 6.25 11.9484 6.64509 12.6517 7.34835C13.3549 8.05161 13.75 9.00544 13.75 10C13.75 10.9946 13.3549 11.9484 12.6517 12.6517C11.9484 13.3549 10.9946 13.75 10 13.75C9.00544 13.75 8.05161 13.3549 7.34835 12.6517C6.64509 11.9484 6.25 10.9946 6.25 10C6.25 9.00544 6.64509 8.05161 7.34835 7.34835C8.05161 6.64509 9.00544 6.25 10 6.25Z" fill="#4A5660"></path>
</svg>