<svg width="14" height="18" viewBox="0 0 14 18" fill="none" xmlns="http://www.w3.org/2000/svg">
<path d="M11.5709 1.56823C11.7859 1.08661 11.6256 0.524128 11.1845 0.214764C10.7435 -0.0946005 10.142 -0.0664765 9.73014 0.278043L0.398821 8.15276C0.0343164 8.46213 -0.0969053 8.95781 0.0744119 9.39374C0.245729 9.82966 0.683135 10.125 1.16793 10.125H5.23215L2.42911 16.4318C2.21405 16.9134 2.37444 17.4759 2.81549 17.7852C3.25654 18.0946 3.85797 18.0665 4.26986 17.722L13.6012 9.84724C13.9657 9.53787 14.0969 9.04219 13.9256 8.60626C13.7543 8.17034 13.3205 7.87856 12.8321 7.87856H8.76785L11.5709 1.56823Z" fill="#85929B"></path>
</svg>