<svg width="24" height="17" viewBox="0 0 24 17" fill="none" xmlns="http://www.w3.org/2000/svg">
<path d="M12.0001 0C11.6963 0 11.3963 0.0524999 11.1113 0.15375L0.592589 3.9525C0.236339 4.08375 8.89288e-05 4.42125 8.89288e-05 4.8C8.89288e-05 5.17875 0.236339 5.51625 0.592589 5.6475L2.76384 6.43125C2.14884 7.39875 1.80009 8.5425 1.80009 9.74625V10.8C1.80009 11.865 1.39509 12.9637 0.963839 13.83C0.720089 14.3175 0.442589 14.7975 0.120089 15.24C8.89301e-05 15.4013 -0.0336611 15.6112 0.0338389 15.8025C0.101339 15.9938 0.258839 16.1363 0.453839 16.185L2.85384 16.785C3.01134 16.8263 3.18009 16.7963 3.31884 16.71C3.45759 16.6238 3.55509 16.4813 3.58509 16.32C3.90759 14.715 3.74634 13.275 3.50634 12.2438C3.38634 11.7113 3.22509 11.1675 3.00009 10.6688V9.74625C3.00009 8.61375 3.38259 7.545 4.04634 6.69C4.53009 6.10875 5.15634 5.64 5.89134 5.35125L11.7788 3.0375C12.0863 2.9175 12.4351 3.0675 12.5551 3.375C12.6751 3.6825 12.5251 4.03125 12.2176 4.15125L6.33009 6.465C5.86509 6.64875 5.45634 6.93 5.12259 7.275L11.1076 9.435C11.3926 9.53625 11.6926 9.58875 11.9963 9.58875C12.3001 9.58875 12.6001 9.53625 12.8851 9.435L23.4076 5.6475C23.7638 5.52 24.0001 5.17875 24.0001 4.8C24.0001 4.42125 23.7638 4.08375 23.4076 3.9525L12.8888 0.15375C12.6038 0.0524999 12.3038 0 12.0001 0ZM4.80009 14.1C4.80009 15.4238 8.02509 16.8 12.0001 16.8C15.9751 16.8 19.2001 15.4238 19.2001 14.1L18.6263 8.6475L13.2938 10.575C12.8776 10.725 12.4388 10.8 12.0001 10.8C11.5613 10.8 11.1188 10.725 10.7063 10.575L5.37384 8.6475L4.80009 14.1Z" fill="#85929B"></path>
</svg>