<svg width="21" height="24" viewBox="0 0 21 24" fill="none" xmlns="http://www.w3.org/2000/svg">
<path d="M16.5867 3.76C15.6754 2.71937 15.1732 1.3832 15.1733 0H11.0533V16.5333C11.0222 17.4283 10.6447 18.2761 10.0004 18.898C9.35613 19.5199 8.49546 19.8672 7.6 19.8667C5.70667 19.8667 4.13333 18.32 4.13333 16.4C4.13333 14.1067 6.34667 12.3867 8.62667 13.0933V8.88C4.02667 8.26667 0 11.84 0 16.4C0 20.84 3.68 24 7.58667 24C11.7733 24 15.1733 20.6 15.1733 16.4V8.01333C16.844 9.21313 18.8498 9.85686 20.9067 9.85333V5.73333C20.9067 5.73333 18.4 5.85333 16.5867 3.76Z" fill="#85929B"></path>
</svg>